<svg width="40" height="29" viewBox="0 0 40 29" fill="none" xmlns="http://www.w3.org/2000/svg">
<path d="M40 3.96136V26.3634C40 27.8194 38.78 28.9984 37.2733 28.9984H30.9083V14.0648L20 21.9729L9.09167 14.0648V29H2.72667C2.36846 29 2.01376 28.9318 1.68283 28.7993C1.35191 28.6668 1.05125 28.4725 0.798033 28.2277C0.544817 27.9828 0.344007 27.6921 0.207077 27.3723C0.0701473 27.0524 -0.000218446 26.7096 5.09419e-07 26.3634V3.96136C5.09419e-07 0.703084 3.84833 -1.15718 6.545 0.79811L9.09167 2.64549L20 10.5504L30.9083 2.64227L33.455 0.79811C36.15 -1.15557 40 0.703084 40 3.96136Z" fill="white"/>
</svg>
