<svg width="33" height="33" viewBox="0 0 33 33" fill="none" xmlns="http://www.w3.org/2000/svg">
<path d="M31.4777 23.9533C32.9295 25.4721 33.9854 27.255 31.5437 30.2266C29.234 33 27.5183 33 25.4725 33C20.4572 33 13.0662 26.6607 9.43672 22.9628C5.93919 19.331 0 11.737 0 6.38829C0 4.40726 0.857883 2.49228 3.10158 1.03953C5.41126 -0.479254 7.58897 -0.41322 9.37073 1.7659C10.8225 3.54882 14.716 7.84103 12.2743 11.1427C10.6246 13.3219 10.8225 13.2558 12.4063 15.0387C14.0561 16.8877 15.7719 18.6706 18.2795 20.9158C19.6653 21.9723 19.4014 22.1704 21.909 20.4535C24.8126 18.4725 30.0259 22.6327 31.4777 23.9533Z" fill="white"/>
</svg>
