<svg width="43" height="26" viewBox="0 0 43 26" fill="none" xmlns="http://www.w3.org/2000/svg">
<path d="M41.5781 2.19531C41.8672 1.21875 41.5781 0.5 40.1875 0.5H35.5859C34.4141 0.5 33.875 1.11719 33.5859 1.80469C33.5859 1.80469 31.2422 7.51562 27.9297 11.2188C26.8594 12.2891 26.3672 12.6328 25.7812 12.6328C25.4922 12.6328 25.0469 12.2891 25.0469 11.3125V2.19531C25.0469 1.02344 24.7187 0.5 23.75 0.5H16.5156C15.7812 0.5 15.3437 1.04688 15.3437 1.55469C15.3437 2.66406 17 2.92188 17.1719 6.04688V12.8281C17.1719 14.3125 16.9062 14.5859 16.3203 14.5859C14.7578 14.5859 10.9609 8.85156 8.71094 2.28906C8.25781 1.01563 7.8125 0.5 6.63281 0.5H2.03125C0.71875 0.5 0.453125 1.11719 0.453125 1.80469C0.453125 3.02344 2.01562 9.07813 7.72656 17.0781C11.5312 22.5391 16.8906 25.5 21.7656 25.5C24.6953 25.5 25.0547 24.8438 25.0547 23.7109C25.0547 18.4922 24.7891 18 26.2578 18C26.9375 18 28.1094 18.3438 30.8438 20.9766C33.9688 24.1016 34.4844 25.5 36.2344 25.5H40.8359C42.1484 25.5 42.8125 24.8438 42.4297 23.5469C41.5547 20.8203 35.6406 15.2109 35.375 14.8359C34.6953 13.9609 34.8906 13.5703 35.375 12.7891C35.3828 12.7812 41 4.875 41.5781 2.19531Z" fill="white"/>
</svg>
