<svg width="38" height="40" viewBox="0 0 38 40" fill="none" xmlns="http://www.w3.org/2000/svg">
<path d="M32.3085 5.8125C28.7545 2.0625 24.0214 0 18.9915 0C8.60937 0 0.161161 8.89286 0.161161 19.8214C0.161161 23.3125 1.02634 26.7232 2.67188 29.7321L0 40L9.98348 37.2411C12.7317 38.8214 15.8277 39.6518 18.983 39.6518H18.9915C29.3652 39.6518 38 30.7589 38 19.8304C38 14.5357 35.8625 9.5625 32.3085 5.8125ZM18.9915 36.3125C16.1754 36.3125 13.4187 35.5179 11.0183 34.0179L10.45 33.6607L4.52946 35.2946L6.10714 29.2143L5.73393 28.5893C4.16473 25.9643 3.34196 22.9375 3.34196 19.8214C3.34196 10.7411 10.3652 3.34821 19 3.34821C23.1817 3.34821 27.1089 5.0625 30.0607 8.17857C33.0125 11.2946 34.8277 15.4286 34.8192 19.8304C34.8192 28.9196 27.6179 36.3125 18.9915 36.3125ZM27.5754 23.9732C27.1089 23.7232 24.7933 22.5268 24.3607 22.3661C23.9281 22.1964 23.6143 22.1161 23.3004 22.6161C22.9866 23.1161 22.0875 24.2232 21.8076 24.5625C21.5362 24.8929 21.2563 24.9375 20.7897 24.6875C18.0246 23.2321 16.2094 22.0893 14.3857 18.7946C13.9022 17.9196 14.8692 17.9821 15.7683 16.0893C15.921 15.7589 15.8446 15.4732 15.7259 15.2232C15.6071 14.9732 14.6656 12.5357 14.2754 11.5446C13.8938 10.5804 13.5036 10.7143 13.2152 10.6964C12.9437 10.6786 12.6299 10.6786 12.3161 10.6786C12.0022 10.6786 11.4933 10.8036 11.0607 11.2946C10.6281 11.7946 9.41518 12.9911 9.41518 15.4286C9.41518 17.8661 11.1031 20.2232 11.3321 20.5536C11.5696 20.8839 14.6487 25.8839 19.3732 28.0357C22.3589 29.3929 23.5295 29.5089 25.0223 29.2768C25.9299 29.1339 27.8045 28.0804 28.1946 26.9196C28.5848 25.7589 28.5848 24.7679 28.4661 24.5625C28.3558 24.3393 28.042 24.2143 27.5754 23.9732Z" fill="white"/>
</svg>
