<svg width="152" height="24" viewBox="0 0 152 24" fill="none" xmlns="http://www.w3.org/2000/svg">
<path d="M12 1.44077L14.7722 8.93243L14.8519 9.14805L15.0676 9.22784L22.5592 12L15.0676 14.7722L14.8519 14.8519L14.7722 15.0676L12 22.5592L9.22784 15.0676L9.14805 14.8519L8.93243 14.7722L1.44077 12L8.93243 9.22784L9.14805 9.14805L9.22784 8.93243L12 1.44077Z" fill="#C7FC93" stroke="#006FFF"/>
<path d="M44 1.44077L46.7722 8.93243L46.8519 9.14805L47.0676 9.22784L54.5592 12L47.0676 14.7722L46.8519 14.8519L46.7722 15.0676L44 22.5592L41.2278 15.0676L41.1481 14.8519L40.9324 14.7722L33.4408 12L40.9324 9.22784L41.1481 9.14805L41.2278 8.93243L44 1.44077Z" fill="#C7FC93" stroke="#006FFF"/>
<path d="M76 1.44077L78.7722 8.93243L78.8519 9.14805L79.0676 9.22784L86.5592 12L79.0676 14.7722L78.8519 14.8519L78.7722 15.0676L76 22.5592L73.2278 15.0676L73.1481 14.8519L72.9324 14.7722L65.4408 12L72.9324 9.22784L73.1481 9.14805L73.2278 8.93243L76 1.44077Z" fill="#C7FC93" stroke="#006FFF"/>
<path d="M108 1.44077L110.772 8.93243L110.852 9.14805L111.068 9.22784L118.559 12L111.068 14.7722L110.852 14.8519L110.772 15.0676L108 22.5592L105.228 15.0676L105.148 14.8519L104.932 14.7722L97.4408 12L104.932 9.22784L105.148 9.14805L105.228 8.93243L108 1.44077Z" fill="#C7FC93" stroke="#006FFF"/>
<path d="M140 1.44077L142.772 8.93243L142.852 9.14805L143.068 9.22784L150.559 12L143.068 14.7722L142.852 14.8519L142.772 15.0676L140 22.5592L137.228 15.0676L137.148 14.8519L136.932 14.7722L129.441 12L136.932 9.22784L137.148 9.14805L137.228 8.93243L140 1.44077Z" fill="#C7FC93" stroke="#006FFF"/>
</svg>
